# xmcd CD database file
#
# Track frame offsets:
#	150
#	12035
#	22995
#	35207
#	43880
#	54510
#	63350
#	74415
#	85130
#	96270
#
# Disc length: 1372 seconds
#
# Revision: 1
# Processed by: cddbd v1.5.2PL0 Copyright (c) Steve Scherf et al.
# Submitted via: CDex 1.50
#
DISCID=82055a0a
DTITLE=Classic Country  - Waylon Jennings
DYEAR=1997
DGENRE=Country
TTITLE0=Cryin'
TTITLE1=Sally Was A Good Girl
TTITLE2=Don't Think Twice, It's Alright
TTITLE3=Abilene
TTITLE4=Money
TTITLE5=Love's Gonna Live Here
TTITLE6=Dream Baby
TTITLE7=Burnin' Memories
TTITLE8=Big Mamou
TTITLE9=It's So Easy
EXTD=YEAR: 1997
EXTT0=
EXTT1=
EXTT2=
EXTT3=
EXTT4=
EXTT5=
EXTT6=
EXTT7=
EXTT8=
EXTT9=
PLAYORDER=
